<svg width="73" height="25" viewBox="0 0 73 25" fill="none" xmlns="http://www.w3.org/2000/svg">
<path opacity="0.1" d="M27.624 14.456V19H26.168V7.72H29.752C31.0427 7.72 32.008 8.024 32.648 8.632C33.288 9.22933 33.608 10.0507 33.608 11.096C33.608 12.152 33.2773 12.9787 32.616 13.576C31.9547 14.1627 31 14.456 29.752 14.456H27.624ZM29.624 13.24C30.5093 13.24 31.144 13.0533 31.528 12.68C31.9227 12.3067 32.12 11.7787 32.12 11.096C32.12 10.392 31.9227 9.85867 31.528 9.496C31.144 9.12267 30.5093 8.936 29.624 8.936H27.624V13.24H29.624ZM43.1166 10.216V19H41.6606V16.936C41.4366 17.6507 41.0366 18.2 40.4606 18.584C39.8953 18.9573 39.234 19.144 38.4766 19.144C37.4633 19.144 36.642 18.8187 36.0126 18.168C35.3833 17.5067 35.0686 16.5627 35.0686 15.336V10.216H36.5246V15.192C36.5246 16.0667 36.7486 16.744 37.1966 17.224C37.6446 17.6933 38.2526 17.928 39.0206 17.928C39.8206 17.928 40.4606 17.672 40.9406 17.16C41.4206 16.6373 41.6606 15.88 41.6606 14.888V10.216H43.1166ZM50.2973 10.104C51.0759 10.104 51.7693 10.2853 52.3773 10.648C52.9853 11.0107 53.4599 11.5333 53.8013 12.216C54.1533 12.8987 54.3293 13.6987 54.3293 14.616C54.3293 15.5333 54.1533 16.3333 53.8013 17.016C53.4599 17.688 52.9853 18.2053 52.3773 18.568C51.7693 18.9307 51.0759 19.112 50.2973 19.112C49.4439 19.112 48.7186 18.8987 48.1213 18.472C47.5346 18.0347 47.1293 17.464 46.9053 16.76V19H45.4493V7.16H46.9053V12.456C47.1293 11.752 47.5346 11.1867 48.1213 10.76C48.7186 10.3227 49.4439 10.104 50.2973 10.104ZM49.8813 11.4C49.3159 11.4 48.8039 11.5333 48.3453 11.8C47.8866 12.056 47.5293 12.4293 47.2733 12.92C47.0173 13.4107 46.8893 13.976 46.8893 14.616C46.8893 15.256 47.0173 15.8213 47.2733 16.312C47.5293 16.792 47.8866 17.1653 48.3453 17.432C48.8039 17.6987 49.3159 17.832 49.8813 17.832C50.7879 17.832 51.5079 17.5493 52.0413 16.984C52.5853 16.408 52.8573 15.6187 52.8573 14.616C52.8573 13.6133 52.5853 12.8293 52.0413 12.264C51.5079 11.688 50.7879 11.4 49.8813 11.4ZM57.6865 7.16V19H56.2305V7.16H57.6865ZM59.7714 7.64C59.7714 7.37333 59.862 7.16 60.0434 7C60.2247 6.82933 60.4647 6.744 60.7634 6.744C61.062 6.744 61.302 6.82933 61.4834 7C61.6647 7.16 61.7554 7.37333 61.7554 7.64C61.7554 7.90667 61.6647 8.12533 61.4834 8.296C61.302 8.456 61.062 8.536 60.7634 8.536C60.4647 8.536 60.2247 8.456 60.0434 8.296C59.862 8.12533 59.7714 7.90667 59.7714 7.64ZM61.4834 10.216V19H60.0274V10.216H61.4834ZM67.7123 10.104C68.8323 10.104 69.7603 10.4027 70.4963 11C71.2323 11.5973 71.6856 12.3973 71.8563 13.4H70.3203C70.2136 12.7707 69.9203 12.28 69.4403 11.928C68.9709 11.5653 68.3843 11.384 67.6803 11.384C67.1683 11.384 66.6989 11.5013 66.2723 11.736C65.8563 11.9707 65.5203 12.3333 65.2643 12.824C65.0083 13.304 64.8803 13.9013 64.8803 14.616C64.8803 15.3307 65.0083 15.9333 65.2643 16.424C65.5203 16.904 65.8563 17.2613 66.2723 17.496C66.6989 17.7307 67.1683 17.848 67.6803 17.848C68.3843 17.848 68.9709 17.6667 69.4403 17.304C69.9203 16.9413 70.2136 16.4453 70.3203 15.816H71.8563C71.6856 16.8293 71.2323 17.6347 70.4963 18.232C69.7603 18.8187 68.8323 19.112 67.7123 19.112C66.8696 19.112 66.1229 18.9307 65.4723 18.568C64.8216 18.2053 64.3096 17.688 63.9363 17.016C63.5736 16.3333 63.3923 15.5333 63.3923 14.616C63.3923 13.6987 63.5736 12.8987 63.9363 12.216C64.3096 11.5333 64.8216 11.0107 65.4723 10.648C66.1229 10.2853 66.8696 10.104 67.7123 10.104Z" fill="black"/>
<g opacity="0.2">
<rect opacity="0.01" x="7" y="4" width="16" height="16" fill="black"/>
<rect opacity="0.01" x="7" y="4" width="16" height="16" fill="black"/>
<path fill-rule="evenodd" clip-rule="evenodd" d="M8 11.6667C8 7.98477 10.9848 5 14.6667 5C16.4348 5 18.1305 5.70238 19.3807 6.95262C20.631 8.20286 21.3333 9.89856 21.3333 11.6667C21.3333 15.3486 18.3486 18.3333 14.6667 18.3333C10.9848 18.3333 8 15.3486 8 11.6667ZM15.86 6.47333C15.4686 6.38291 15.0684 6.33596 14.6667 6.33333C11.7211 6.33333 9.33333 8.72115 9.33333 11.6667C9.33434 11.9886 9.36334 12.3098 9.42 12.6267C10.2867 12.9867 11.68 13.3867 12.5933 12.6733C13.2267 12.2 13.2267 11.6667 13.2267 10.76C13.1691 10.0031 13.3116 9.24438 13.64 8.56C13.9398 8.08156 14.3668 7.69605 14.8733 7.44667C14.9039 7.42756 14.9345 7.4087 14.9649 7.38989C15.094 7.31027 15.2214 7.23168 15.34 7.14C15.5655 6.96391 15.7441 6.73493 15.86 6.47333ZM10 14.2C10.4356 14.3132 10.8833 14.3737 11.3333 14.38C12.0864 14.4007 12.8243 14.1657 13.4267 13.7133C14.5667 12.82 14.5667 11.6733 14.5667 10.7533C14.5161 10.2209 14.601 9.68424 14.8133 9.19333C15.0063 8.93061 15.2633 8.72174 15.56 8.58667C15.772 8.4628 15.9767 8.32703 16.1733 8.18C16.5876 7.85275 16.9093 7.42303 17.1067 6.93333C18.0446 7.41324 18.8194 8.16021 19.3333 9.08C18.38 9.21333 17.0267 9.52667 16.76 10.7667C16.6998 11.0629 16.6686 11.3644 16.6667 11.6667C16.6882 12.0046 16.6216 12.3423 16.4733 12.6467L16.4067 12.76C15.9733 13.48 15.4867 14.3 16.1467 15.4267C16.2267 15.5667 16.3133 15.7 16.4 15.8333L16.4 15.8333C16.5774 16.0383 16.6971 16.2868 16.7467 16.5533C16.091 16.8423 15.3832 16.9943 14.6667 17C12.7161 16.9903 10.9265 15.9165 10 14.2ZM17.5333 15.12C17.6974 15.3593 17.838 15.6138 17.9533 15.88L17.9333 15.9133C19.6182 14.6221 20.3688 12.4492 19.84 10.3933C19.2 10.44 18.1667 10.5733 18.06 11.06C18.0194 11.2799 17.9993 11.5031 18 11.7267C18.0255 12.289 17.9013 12.848 17.64 13.3467L17.5733 13.46C17.1533 14.1267 17.06 14.34 17.32 14.7933C17.3867 14.9067 17.46 15.0133 17.5333 15.12L17.5333 15.12Z" fill="black"/>
</g>
<rect opacity="0.1" width="1" height="24" rx="0.5" fill="black"/>
</svg>
