<svg width="14" height="12" viewBox="0 0 14 12" fill="none" xmlns="http://www.w3.org/2000/svg">
<path fill-rule="evenodd" clip-rule="evenodd" d="M6.52662 11.8067C6.65243 11.9315 6.82275 12.001 6.99996 12C7.17716 12.001 7.34748 11.9315 7.47329 11.8067L12.6533 6.62001C14.0056 5.25358 14.0056 3.05311 12.6533 1.68668C11.2899 0.327097 9.08338 0.327097 7.71995 1.68668L6.99996 2.40668L6.27996 1.68668C4.91653 0.327097 2.71005 0.327097 1.34662 1.68668C-0.00567743 3.05311 -0.00567743 5.25358 1.34662 6.62001L6.52662 11.8067ZM2.29329 2.62668C2.69588 2.2231 3.24325 1.99743 3.81329 2.00001C4.38333 1.99743 4.9307 2.2231 5.33329 2.62668L6.52662 3.82668C6.6518 3.95289 6.8222 4.02388 6.99996 4.02388C7.17771 4.02388 7.34811 3.95289 7.47329 3.82668L8.66662 2.62668C9.5197 1.82072 10.8535 1.82072 11.7066 2.62668C12.5448 3.46928 12.5448 4.83074 11.7066 5.67334L6.99996 10.3867L2.29329 5.67334C1.4551 4.83074 1.4551 3.46928 2.29329 2.62668Z" fill="black"/>
</svg>
